<mxfile host="app.diagrams.net" modified="2024-06-05T13:18:21.472Z" agent="Mozilla/5.0 (Windows NT 10.0; Win64; x64) AppleWebKit/537.36 (KHTML, like Gecko) Chrome/125.0.0.0 Safari/537.36" version="24.4.13" etag="zqlj5CYnizqBRxbud943" type="github">
  <diagram name="Page-1" id="8SOKkJXxaZCYkzWRT2-D">
    <mxGraphModel>
      <root>
        <mxCell id="0" />
        <mxCell id="1" parent="0" />
      </root>
    </mxGraphModel>
  </diagram>
</mxfile>
